<svg width="112" height="112" viewBox="0 0 112 112" fill="none" xmlns="http://www.w3.org/2000/svg">
  <defs>
    <linearGradient id="clockGradient" x1="14" y1="10" x2="96" y2="98" gradientUnits="userSpaceOnUse">
      <stop stop-color="#68D6FB" />
      <stop offset="0.5" stop-color="#315BCD" />
      <stop offset="1" stop-color="#5A2FD6" />
    </linearGradient>
    <filter id="softShadow" x="0" y="0" width="112" height="112" filterUnits="userSpaceOnUse" color-interpolation-filters="sRGB">
      <feFlood flood-opacity="0" result="BackgroundImageFix"/>
      <feColorMatrix in="SourceAlpha" type="matrix" values="0 0 0 0 0 0 0 0 0 0 0 0 0 0 0 0 0 0 127 0" result="hardAlpha"/>
      <feOffset dy="6"/>
      <feGaussianBlur stdDeviation="6"/>
      <feColorMatrix type="matrix" values="0 0 0 0 0.192157 0 0 0 0 0.356863 0 0 0 0 0.803922 0 0 0 0.22 0"/>
      <feBlend mode="normal" in2="BackgroundImageFix" result="effect1_dropShadow_1"/>
      <feBlend mode="normal" in="SourceGraphic" in2="effect1_dropShadow_1" result="shape"/>
    </filter>
  </defs>

  <g filter="url(#softShadow)">
    <circle cx="56" cy="50" r="36" fill="white" stroke="url(#clockGradient)" stroke-width="8"/>
    <circle cx="56" cy="50" r="4.4" fill="#315BCD"/>
    <path d="M56 50L74 38" stroke="#315BCD" stroke-width="4.6" stroke-linecap="round"/>
    <path d="M56 50L40 58" stroke="#F18DDD" stroke-width="4.6" stroke-linecap="round"/>
    <path d="M56 18V26" stroke="#315BCD" stroke-width="3.2" stroke-linecap="round"/>
    <path d="M56 74V82" stroke="#315BCD" stroke-width="3.2" stroke-linecap="round"/>
    <path d="M24 50H32" stroke="#315BCD" stroke-width="3.2" stroke-linecap="round"/>
    <path d="M80 50H88" stroke="#315BCD" stroke-width="3.2" stroke-linecap="round"/>
    <path d="M79.5 22.8L74.4 27.9" stroke="#68D6FB" stroke-width="3" stroke-linecap="round"/>
    <path d="M37.6 72.1L32.5 77.2" stroke="#68D6FB" stroke-width="3" stroke-linecap="round"/>
    <path d="M32.5 22.8L37.6 27.9" stroke="#68D6FB" stroke-width="3" stroke-linecap="round"/>
    <path d="M74.4 72.1L79.5 77.2" stroke="#68D6FB" stroke-width="3" stroke-linecap="round"/>
    <path d="M84.5 13.5L88.8 17.8" stroke="#68D6FB" stroke-width="3" stroke-linecap="round"/>
    <path d="M91 9.5V21.8" stroke="#68D6FB" stroke-width="3" stroke-linecap="round"/>
    <path d="M97.2 15.7H84.8" stroke="#68D6FB" stroke-width="3" stroke-linecap="round"/>
  </g>
</svg>
