<svg width="456" height="112" viewBox="0 0 456 112" fill="none" xmlns="http://www.w3.org/2000/svg">
  <defs>
    <linearGradient id="clockGradient" x1="14" y1="10" x2="96" y2="98" gradientUnits="userSpaceOnUse">
      <stop stop-color="#68D6FB" />
      <stop offset="0.5" stop-color="#315BCD" />
      <stop offset="1" stop-color="#5A2FD6" />
    </linearGradient>
    <linearGradient id="twoGradient" x1="289" y1="27" x2="289" y2="86" gradientUnits="userSpaceOnUse">
      <stop stop-color="#F6B2E6" />
      <stop offset="1" stop-color="#F18DDD" />
    </linearGradient>
    <filter id="softShadow" x="0" y="0" width="116" height="112" filterUnits="userSpaceOnUse" color-interpolation-filters="sRGB">
      <feFlood flood-opacity="0" result="BackgroundImageFix"/>
      <feColorMatrix in="SourceAlpha" type="matrix" values="0 0 0 0 0 0 0 0 0 0 0 0 0 0 0 0 0 0 127 0" result="hardAlpha"/>
      <feOffset dy="6"/>
      <feGaussianBlur stdDeviation="6"/>
      <feColorMatrix type="matrix" values="0 0 0 0 0.192157 0 0 0 0 0.356863 0 0 0 0 0.803922 0 0 0 0.22 0"/>
      <feBlend mode="normal" in2="BackgroundImageFix" result="effect1_dropShadow_1_2"/>
      <feBlend mode="normal" in="SourceGraphic" in2="effect1_dropShadow_1_2" result="shape"/>
    </filter>
  </defs>

  <g filter="url(#softShadow)">
    <circle cx="56" cy="50" r="36" fill="white" stroke="url(#clockGradient)" stroke-width="8"/>
    <circle cx="56" cy="50" r="4.4" fill="#315BCD"/>
    <path d="M56 50L74 38" stroke="#315BCD" stroke-width="4.6" stroke-linecap="round"/>
    <path d="M56 50L40 58" stroke="#F18DDD" stroke-width="4.6" stroke-linecap="round"/>
    <path d="M56 18V26" stroke="#315BCD" stroke-width="3.2" stroke-linecap="round"/>
    <path d="M56 74V82" stroke="#315BCD" stroke-width="3.2" stroke-linecap="round"/>
    <path d="M24 50H32" stroke="#315BCD" stroke-width="3.2" stroke-linecap="round"/>
    <path d="M80 50H88" stroke="#315BCD" stroke-width="3.2" stroke-linecap="round"/>
    <path d="M79.5 22.8L74.4 27.9" stroke="#68D6FB" stroke-width="3" stroke-linecap="round"/>
    <path d="M37.6 72.1L32.5 77.2" stroke="#68D6FB" stroke-width="3" stroke-linecap="round"/>
    <path d="M32.5 22.8L37.6 27.9" stroke="#68D6FB" stroke-width="3" stroke-linecap="round"/>
    <path d="M74.4 72.1L79.5 77.2" stroke="#68D6FB" stroke-width="3" stroke-linecap="round"/>
    <path d="M84.5 13.5L88.8 17.8" stroke="#68D6FB" stroke-width="3" stroke-linecap="round"/>
    <path d="M91 9.5L91 21.8" stroke="#68D6FB" stroke-width="3" stroke-linecap="round"/>
    <path d="M97.2 15.7L84.8 15.7" stroke="#68D6FB" stroke-width="3" stroke-linecap="round"/>
  </g>

  <path d="M144.157 79V34.1023H159.306V79H144.157ZM151.761 28.5409C149.562 28.5409 147.669 27.8023 146.08 26.325C144.521 24.8182 143.742 23.0028 143.742 20.8786C143.742 18.7244 144.521 16.9091 146.08 15.432C147.669 13.9252 149.562 13.1719 151.761 13.1719C153.959 13.1719 155.838 13.9252 157.396 15.432C158.985 16.9091 159.78 18.7244 159.78 20.8786C159.78 23.0028 158.985 24.8182 157.396 26.325C155.838 27.8023 153.959 28.5409 151.761 28.5409Z" fill="#315BCD"/>
  <path d="M181.318 79.8295C176.527 79.8295 172.39 78.8963 168.908 77.0298C165.455 75.1336 162.787 72.4801 160.904 69.0693C159.021 65.629 158.079 61.625 158.079 57.0574C158.079 52.5195 159.021 48.5451 160.904 45.1342C162.787 41.6939 165.455 39.0405 168.908 37.1739C172.39 35.2777 176.527 34.3295 181.318 34.3295C185.605 34.3295 189.31 35.0682 192.434 36.5455C195.587 38.0227 198.004 40.1469 199.683 42.9182C201.391 45.6894 202.245 49.0107 202.245 52.8821C202.245 56.7536 201.391 60.0898 199.683 62.8909C198.004 65.6622 195.602 67.7864 192.478 69.2636C189.354 70.711 185.634 71.4347 181.318 71.4347C178.699 71.4347 176.278 71.1829 174.057 70.679C171.835 70.1754 169.87 69.4517 168.161 68.5079L172.34 59.7124C173.687 60.4472 175.127 60.9954 176.659 61.3573C178.191 61.6893 179.708 61.8551 181.213 61.8551C184.038 61.8551 186.281 61.2191 187.942 59.9472C189.603 58.6452 190.434 56.8125 190.434 54.449C190.434 51.9969 189.603 50.1642 187.942 48.9517C186.281 47.7097 184.038 47.0888 181.213 47.0888C179.65 47.0888 178.147 47.2698 176.704 47.6321C175.29 47.964 173.922 48.5119 172.598 49.2756L162.84 46.6683L165.475 13.9148H198.815V24.892H176.347L184.574 20.4128L182.811 42.2663L177.632 37.8267C180.016 36.8536 182.443 36.367 184.914 36.367C188.332 36.367 191.338 36.9879 193.932 38.2295C196.556 39.4418 198.615 41.2453 200.109 43.6392C201.611 46.003 202.362 48.9662 202.362 52.5284C202.362 56.4152 201.405 59.8302 199.492 62.7727C197.609 65.7152 194.867 68.0017 191.264 69.6321C187.691 71.2327 183.709 72.0327 179.318 72.0327L181.318 79.8295Z" fill="#315BCD"/>
  <path d="M209.932 79V34.1023H224.364V39.9006C226.038 37.8062 228.009 36.256 230.276 35.2502C232.572 34.2444 235.134 33.7415 237.961 33.7415C241.258 33.7415 244.203 34.4051 246.794 35.7322C249.414 37.0592 251.475 39.1089 252.977 41.8811C254.509 44.6238 255.275 48.1492 255.275 52.4572V79H240.126V54.7931C240.126 51.3228 239.404 48.8039 237.961 47.2363C236.519 45.6685 234.472 44.8849 231.822 44.8849C229.94 44.8849 228.246 45.2816 226.742 46.0748C225.268 46.8384 224.086 48.0018 223.195 49.5653C222.333 51.1287 221.902 53.0977 221.902 55.4727V79H209.932Z" fill="#315BCD"/>
  <path d="M282.098 80.0568C277.484 80.0568 273.363 79.1215 269.735 77.2513C266.136 75.3518 263.308 72.7252 261.25 69.3715C259.193 65.9887 258.164 62.0803 258.164 57.6462C258.164 53.1828 259.193 49.2745 261.25 45.9211C263.308 42.5674 266.136 39.9555 269.735 38.085C273.363 36.185 277.484 35.2352 282.098 35.2352C286.77 35.2352 290.892 36.185 294.461 38.085C298.089 39.9555 300.917 42.5674 302.946 45.9211C305.004 49.2745 306.033 53.1828 306.033 57.6462C306.033 62.0803 305.004 65.9887 302.946 69.3715C300.917 72.7252 298.089 75.3518 294.461 77.2513C290.892 79.1215 286.77 80.0568 282.098 80.0568ZM282.098 68.3308C283.891 68.3308 285.522 67.9194 286.991 67.0965C288.49 66.2444 289.68 64.9794 290.561 63.3015C291.441 61.6235 291.882 59.7384 291.882 57.6462C291.882 55.5238 291.441 53.6387 290.561 51.9904C289.68 50.3125 288.49 49.0624 286.991 48.2401C285.522 47.4172 283.891 47.0059 282.098 47.0059C280.335 47.0059 278.704 47.4172 277.205 48.2401C275.736 49.0624 274.546 50.3125 273.637 51.9904C272.756 53.6387 272.315 55.5238 272.315 57.6462C272.315 59.7384 272.756 61.6235 273.637 63.3015C274.546 64.9794 275.736 66.2444 277.205 67.0965C278.704 67.9194 280.335 68.3308 282.098 68.3308Z" fill="url(#twoGradient)"/>
  <path d="M310.823 79V34.1023H325.255V39.9006C326.928 37.8062 328.9 36.256 331.167 35.2502C333.463 34.2444 336.024 33.7415 338.852 33.7415C342.149 33.7415 345.094 34.4051 347.685 35.7322C350.304 37.0592 352.366 39.1089 353.868 41.8811C355.4 44.6238 356.166 48.1492 356.166 52.4572V79H341.017V54.7931C341.017 51.3228 340.295 48.8039 338.852 47.2363C337.409 45.6685 335.363 44.8849 332.712 44.8849C330.831 44.8849 329.137 45.2816 327.633 46.0748C326.158 46.8384 324.977 48.0018 324.086 49.5653C323.224 51.1287 322.793 53.0977 322.793 55.4727V79H310.823Z" fill="#315BCD"/>
  <path d="M361.787 79V34.1023H376.219V40.6148C377.811 38.247 379.918 36.5218 382.541 35.4391C385.193 34.3563 388.256 33.8152 391.731 33.8152V46.538C391.126 46.478 390.535 46.4485 389.954 46.4485C389.402 46.4188 388.84 46.4038 388.271 46.4038C385.44 46.4038 383.125 47.1394 381.326 48.6108C379.555 50.0525 378.67 52.4804 378.67 55.8945V79H361.787Z" fill="#315BCD"/>
  <path d="M393.137 79V34.1023H408.287V79H393.137ZM400.742 28.5409C398.543 28.5409 396.65 27.8023 395.061 26.325C393.502 24.8182 392.723 23.0028 392.723 20.8786C392.723 18.7244 393.502 16.9091 395.061 15.432C396.65 13.9252 398.543 13.1719 400.742 13.1719C402.94 13.1719 404.819 13.9252 406.377 15.432C407.966 16.9091 408.761 18.7244 408.761 20.8786C408.761 23.0028 407.966 24.8182 406.377 26.325C404.819 27.8023 402.94 28.5409 400.742 28.5409Z" fill="#315BCD"/>
  <path d="M408.881 79V34.1023H423.313V39.9006C424.986 37.8062 426.958 36.256 429.225 35.2502C431.521 34.2444 434.082 33.7415 436.91 33.7415C440.206 33.7415 443.151 34.4051 445.742 35.7322C448.362 37.0592 450.423 39.1089 451.926 41.8811C453.458 44.6238 454.224 48.1492 454.224 52.4572V79H439.075V54.7931C439.075 51.3228 438.353 48.8039 436.91 47.2363C435.467 45.6685 433.421 44.8849 430.77 44.8849C428.889 44.8849 427.195 45.2816 425.691 46.0748C424.216 46.8384 423.035 48.0018 422.144 49.5653C421.282 51.1287 420.851 53.0977 420.851 55.4727V79H408.881Z" fill="#315BCD"/>
</svg>
